<?xml version="1.0" standalone="no"?><!DOCTYPE svg PUBLIC "-//W3C//DTD SVG 1.1//EN" "http://www.w3.org/Graphics/SVG/1.1/DTD/svg11.dtd"><svg t="1564404283261" class="icon" viewBox="0 0 1024 1024" version="1.1" xmlns="http://www.w3.org/2000/svg" p-id="986" xmlns:xlink="http://www.w3.org/1999/xlink" width="200" height="200"><defs><style type="text/css"></style></defs><path d="M733.013333 60.16H90.453333A80.64 80.64 0 0 0 9.813333 140.373333v803.413334A80.64 80.64 0 0 0 90.453333 1024h642.56a80.64 80.64 0 0 0 80.213334-80.213333v-316.16l-80.213334 74.24v161.28a80.64 80.64 0 0 1-80.213333 80.213333H170.666667a80.64 80.64 0 0 1-80.213334-80.213333V221.013333A80.64 80.64 0 0 1 170.666667 140.373333h481.706666a80.64 80.64 0 0 1 80.213334 80.213334V298.666667l80.213333-77.653334V140.373333a80.64 80.64 0 0 0-79.786667-80.213333z" fill="#ffffff" p-id="987"></path><path d="M626.346667 304.213333a37.12 37.12 0 0 1 0 74.24H196.693333a37.12 37.12 0 0 1 0-74.24h429.653334zM609.28 485.12H196.693333a37.12 37.12 0 0 0 0 74.24h338.346667c12.8-43.093333 62.293333-31.573333 74.24-74.24zM393.813333 739.84H196.693333a37.12 37.12 0 0 1 0-74.24h220.16" fill="#ffffff" p-id="988"></path><path d="M210.773333 0m15.786667 0l8.533333 0q15.786667 0 15.786667 15.786667l0 128.853333q0 15.786667-15.786667 15.786667l-8.533333 0q-15.786667 0-15.786667-15.786667l0-128.853333q0-15.786667 15.786667-15.786667Z" fill="#ffffff" p-id="989"></path><path d="M331.093333 0m16.64 0l6.826667 0q16.64 0 16.64 16.64l0 127.146667q0 16.64-16.64 16.64l-6.826667 0q-16.64 0-16.64-16.64l0-127.146667q0-16.64 16.64-16.64Z" fill="#ffffff" p-id="990"></path><path d="M451.84 0m16.64 0l6.826667 0q16.64 0 16.64 16.64l0 127.146667q0 16.64-16.64 16.64l-6.826667 0q-16.64 0-16.64-16.64l0-127.146667q0-16.64 16.64-16.64Z" fill="#ffffff" p-id="991"></path><path d="M572.16 0m16.64 0l6.826667 0q16.64 0 16.64 16.64l0 127.146667q0 16.64-16.64 16.64l-6.826667 0q-16.64 0-16.64-16.64l0-127.146667q0-16.64 16.64-16.64Z" fill="#ffffff" p-id="992"></path><path d="M999.68 392.106667l-55.466667 54.186666-151.893333-150.613333 55.466667-54.186667a42.666667 42.666667 0 0 1 57.6-4.693333l99.84 97.706667a42.666667 42.666667 0 0 1-5.973334 57.6zM768 320.853333L918.613333 469.333333 554.666667 829.013333a25.173333 25.173333 0 0 1-13.226667 7.253334h-2.56L349.44 896a15.36 15.36 0 0 1-14.506667 0 12.373333 12.373333 0 0 1-2.56-14.506667l60.16-188.586666v-2.56a26.88 26.88 0 0 1 8.533334-14.506667l105.813333-103.68 256-251.733333z m-256 496.213334L414.293333 725.333333l-25.173333 78.08 39.68 39.68z m249.173333-436.906667a14.506667 14.506667 0 0 0-19.2 0l-285.44 279.04a12.373333 12.373333 0 0 0 0 19.2 14.506667 14.506667 0 0 0 19.2 0l284.16-279.466667a13.226667 13.226667 0 0 0 0-19.2zM599.893333 426.666667" fill="#ffffff" p-id="993"></path></svg>