<?xml version="1.0" encoding="UTF-8"?>
<svg width="27px" height="27px" viewBox="0 0 27 27" version="1.1" xmlns="http://www.w3.org/2000/svg" xmlns:xlink="http://www.w3.org/1999/xlink">
    <!-- Generator: Sketch 52.5 (67469) - http://www.bohemiancoding.com/sketch -->
    <title>wechat</title>
    <desc>Created with Sketch.</desc>
    <defs>
        <polygon id="path-1" points="0 0 24 0 24 21 0 21"></polygon>
    </defs>
    <g id="Page-1" stroke="none" stroke-width="1" fill="none" fill-rule="evenodd">
        <g id="小程序首页-微信授权-第一步" transform="translate(-124.000000, -724.000000)">
            <g id="分组-6" transform="translate(15.000000, 715.000000)">
                <g id="分组-4" transform="translate(109.000000, 9.000000)">
                    <g id="分组-2" transform="translate(2.000000, 3.000000)">
                        <mask id="mask-2" fill="white">
                            <use xlink:href="#path-1"></use>
                        </mask>
                        <g id="Clip-2"></g>
                        <path d="M19.1146662,12.3240339 C18.6945408,12.3240339 18.270892,11.8720806 18.270892,11.4110797 C18.270892,10.956423 18.6945408,10.49845 19.1146662,10.49845 C19.7513307,10.49845 20.1778654,10.956423 20.1778654,11.4110797 C20.1778654,11.8720806 19.7513307,12.3240339 19.1146662,12.3240339 M14.4422139,12.3240339 C14.0193368,12.3240339 13.5926679,11.8720806 13.5926679,11.4110797 C13.5926679,10.956423 14.0193368,10.49845 14.4422139,10.49845 C15.0847507,10.49845 15.5055137,10.956423 15.5055137,11.4110797 C15.5055137,11.8720806 15.0847507,12.3240339 14.4422139,12.3240339 M24,13.4658844 C24,9.81785272 20.6015142,6.84414619 16.7847151,6.84414619 C12.7431556,6.84414619 9.55990017,9.81785272 9.55990017,13.4658844 C9.55990017,17.1201161 12.7431556,20.0874424 16.7847151,20.0874424 C17.6305698,20.0874424 18.4839076,19.8584018 19.3334536,19.6295415 L21.6633712,21 L21.0244919,18.7198315 C22.7295904,17.3456962 24,15.5236449 24,13.4658844 M5.73484617,6.16066518 C5.09834945,6.16066518 4.45577903,5.70247589 4.45577903,5.01856232 C4.45577903,4.33180106 5.09834945,3.87984785 5.73484617,3.87984785 C6.37151066,3.87984785 6.79529372,4.33180106 6.79529372,5.01856232 C6.79529372,5.70247589 6.37151066,6.16066518 5.73484617,6.16066518 M11.6798222,3.87999204 C12.3193725,3.87999204 12.7431556,4.3319813 12.7431556,5.01856232 C12.7431556,5.70247589 12.3193725,6.16080937 11.6798222,6.16080937 C11.0431912,6.16080937 10.404312,5.70247589 10.404312,5.01856232 C10.404312,4.33180106 11.0431912,3.87999204 11.6798222,3.87999204 M16.247176,6.35380327 C16.5225729,6.35380327 16.7949498,6.37561151 17.0652461,6.40787328 C16.3301609,2.73154496 12.6710765,0 8.49448627,0 C3.82502045,0 0,3.41899111 0,7.7602364 C0,10.2661652 1.27252365,12.3240339 3.39902267,13.9200725 L2.54951029,16.6650268 L5.51897821,15.0654556 C6.58150626,15.2913962 7.43403872,15.5236449 8.49448627,15.5236449 C8.76095719,15.5236449 9.02534762,15.5095146 9.28738911,15.487454 C9.12141943,14.877292 9.02534762,14.2382926 9.02534762,13.5754302 C9.02534762,9.58899238 12.21216,6.35380327 16.247176,6.35380327" id="Fill-1" fill="#FFFFFF" mask="url(#mask-2)"></path>
                    </g>
                </g>
            </g>
        </g>
    </g>
</svg>